<?xml version="1.0" encoding="UTF-8"?>
<svg width="187px" height="164px" viewBox="0 0 187 164" version="1.1" xmlns="http://www.w3.org/2000/svg" xmlns:xlink="http://www.w3.org/1999/xlink">
    <title>illustration/144/2</title>
    <defs>
        <path d="M172.515693,125.515088 C158.04872,153.282799 138.710455,161.871804 91.0013512,162.985655 C75.8428166,163.339557 61.0412273,160.063341 46.8146179,154.558235 C36.3849351,150.520349 27.1180612,144.542338 19.7733813,135.848151 C15.6204928,130.91902 12.7431344,125.104706 10.2217378,119.150947 C6.64558623,110.741204 2.82769201,93.933274 0.735353991,76.2074837 C-1.35698403,58.4816933 1.37015266,38.7873152 4.47295361,30.4083986 C7.97671506,20.7151797 14.8252388,12.6641699 23.7304907,7.76956045 C29.9528706,4.26383499 36.740886,1.92891915 43.7711439,0.876052412 C49.0461932,0.0525413525 54.392365,-0.191364652 59.7182356,0.14850539 C74.6211725,1.08825363 88.7053971,5.72636589 103.02693,9.37622679 C111.231851,11.4739874 119.45457,13.511119 127.825607,14.7358232 C133.651516,15.5906909 139.513021,16.3788669 145.445719,16.2515461 C149.73506,16.1606028 154.030333,16.2515461 158.325606,16.3061122 C168.633143,16.46561 177.810708,23.0126486 181.510589,32.8456811 C183.937062,39.1995918 185.034612,45.747515 185.663477,52.4955136 C186.049103,56.9941794 186.982667,97.7473771 172.515693,125.515088 Z" id="path-1"></path>
    </defs>
    <g id="Page-1" stroke="none" stroke-width="1" fill="none" fill-rule="evenodd">
        <g id="HP_Web_Solicitud-Certificado_Videofirma-1" transform="translate(-335.000000, -198.000000)">
            <g id="Group" transform="translate(317.000000, 169.000000)">
                <g id="Group" transform="translate(18.583333, 29.423611)">
                    <mask id="mask-2" fill="white">
                        <use xlink:href="#path-1"></use>
                    </mask>
                    <use id="Mask" fill="#00A94F" xlink:href="#path-1"></use>
                    <path d="M121.077428,74.3867605 C120.238232,79.0505488 120.824034,83.6343762 122.518774,87.7186725 L119.324561,93.9062106 L126.151658,93.777734 C129.776368,98.2070302 134.98774,101.418045 141.140937,102.480897 C154.59623,104.804256 167.429392,95.9950774 169.803482,82.8024232 C172.17848,69.6106675 163.195266,57.0325445 149.740881,54.7091854 C136.284679,52.384928 123.452426,61.1950047 121.077428,74.3867605" id="Path" fill="#F8F9FF" mask="url(#mask-2)"></path>
                    <path d="M144.754386,65.9809245 L156.491228,70.8861743 L156.491228,76.8483709 C156.491228,82.7505336 153.296324,88.1671669 148.073429,91.2069845 L148.073429,91.2069845 L144.754386,93.1495405 L141.414803,91.2104901 C136.203419,88.1678242 133.017544,82.7422078 133.017544,76.8483709 L133.017544,76.8483709 L133.017544,70.8861743 L144.754386,65.9809245 Z M148.591476,75.8404372 L141.865814,75.8404372 C141.345781,75.8404372 140.917387,76.2602361 140.917387,76.7729342 L140.917387,83.2898964 L147.643274,83.2898964 C148.165789,83.2898964 148.591476,82.8700975 148.591476,82.3573994 L148.591476,75.8404372 Z M146.721029,77.3279189 L146.721029,81.4178911 L142.7296,82.1017077 L142.7296,78.015022 L146.721029,77.3279189 Z" id="Combined-Shape" fill="#05BE50" mask="url(#mask-2)"></path>
                    <g id="Persona" mask="url(#mask-2)">
                        <g transform="translate(33.395666, 35.416374)">
                            <path d="M81.9142528,30.6783665 C81.9142528,19.2745029 71.375438,0.0347758285 50.9452287,0 C30.5159199,0.0347758285 19.4827605,18.5207368 19.4827605,30.6783665 C19.4827605,44.9764483 32.1727397,71.5956062 32.1727397,71.5956062 C32.1727397,71.5956062 35.6232471,69.6725029 40.8503336,72.0642105 C44.001893,73.506538 49.6927089,71.8929396 52.9415165,71.8912008 C62.9040462,71.8868538 78.7005626,83.6141326 78.7005626,83.6141326 C78.7005626,83.6141326 74.0299515,73.1579103 75.2554579,65.0733996 C77.1914158,52.3045848 81.9142528,35.3035517 81.9142528,30.6783665" id="Fill-23" stroke="none" fill="#0036A9" fill-rule="evenodd"></path>
                            <path d="M64.6804452,84.2562682 C61.8458426,71.7560967 64.8434258,75.7640109 72.4665979,56.7798862 L51.9184303,58.1735275 L31.3855702,56.5660148 C39.0096427,75.551009 41.3526021,71.6856756 39.0771762,84.2919135 C38.2955894,88.6241123 30.5904768,95.8687867 30.5904768,95.8687867 L52.9413364,134.849013 L73.4228711,95.8687867 C73.4228711,95.8687867 65.6709353,88.6241123 64.6804452,84.2562682" id="Fill-26" stroke="none" fill="#FFBE5D" fill-rule="evenodd"></path>
                            <path d="M76.5884775,142.209752 C77.1818711,136.109202 82.4350705,133.713147 82.4350705,122.163225 C82.4350705,118.554364 80.045288,114.096972 77.7923732,109.086644 C77.2737166,107.931218 79.4951158,104.245849 81.1312253,102.469674 L73.4234114,95.8692214 C69.4029219,103.358196 59.0541011,115.439319 52.0072142,116.191346 C44.9594268,115.439319 35.9027454,104.175428 30.5901166,95.8692214 L22.8823026,102.469674 C24.5184122,104.245849 26.7398114,107.931218 26.2202543,109.086644 C23.96824,114.096972 21.5784574,118.554364 21.5784574,122.163225 C21.5784574,133.713147 26.9180996,136.102247 27.4250505,142.209752 C29.9372936,172.502976 18.9176408,182.765323 14.2236181,210.312126 L90.0789529,210.312126 C85.4146449,179.803292 73.5395688,173.546251 76.5884775,142.209752" id="Fill-29" stroke="none" fill="#FFFFFF" fill-rule="evenodd"></path>
                            <path d="M76.110611,32.1699887 C76.110611,19.6472129 71.3526567,8.29290487 51.7049346,8.29290487 C33.4817174,8.29290487 27.294756,19.0012519 27.294756,32.3812519 C27.294756,33.4054 29.1352667,42.8748581 29.1352667,43.8998756 C29.1352667,57.7519575 38.3090061,75.4798055 51.7049346,75.4798055 C63.6367387,75.4798055 74.3898596,63.2361057 74.101717,43.8998756 L76.110611,32.1699887 Z" id="Fill-32" stroke="none" fill="#FFBE5D" fill-rule="evenodd"></path>
                            <path d="M46.5840107,30.5936873 C45.388219,30.0564008 44.0654645,29.7242916 42.6436609,29.7242916 C41.1489213,29.7242916 39.7568325,30.0885684 38.5043127,30.6780187" id="Stroke-35" stroke="#001861" stroke-width="0.694325581" fill="none" stroke-linecap="round"></path>
                            <path d="M62.3744041,30.5936873 C61.1786124,30.0564008 59.8558579,29.7242916 58.4340543,29.7242916 C56.8600755,29.7242916 55.3662363,30.1902877 54.518917,30.6780187 C52.8873097,31.6187049 50.4398987,32.7358784 52.8422874,41.2768218 C53.2943111,42.8843345 53.924623,43.7989388 53.8462842,45.3247283 C53.7679454,46.8339992 52.7315326,47.5399485 51.7266354,47.802506 C50.8541036,48.0302877 49.5754709,47.9894261 48.4778278,47.4251883" id="Stroke-38" stroke="#001861" stroke-width="0.694325581" fill="none" stroke-linecap="round"></path>
                            <path d="M62.3744041,30.5936873 C61.1786124,30.0564008 59.8558579,29.7242916 58.4340543,29.7242916 C56.8600755,29.7242916 55.3662363,30.1902877 54.518917,30.6780187" id="Stroke-41" stroke="#001861" stroke-width="0.694325581" fill="none" stroke-linecap="round"></path>
                            <path d="M51.7629233,8.29264405 C52.0429619,13.2282035 38.4129175,9.5193614 38.4129175,12.636145 C38.4129175,28.4313263 28.7907562,32.8035173 28.786254,50.6452561 C28.9618409,52.6796421 38.9558861,72.8513614 38.9558861,72.8513614 C32.1728298,76.0133536 25.3996783,74.5936304 24.2236964,71.9289326 C25.3357466,71.224722 25.9111313,69.9667064 26.2145815,68.7078214 C19.4819501,71.3733887 15.7505037,62.9332951 15.7505037,62.9332951 C20.3778934,63.6983634 26.0164835,61.8830651 20.3661876,30.6787142 C20.3661876,30.6787142 27.3527447,2.66591501 51.7629233,8.29264405" id="Fill-44" stroke="none" fill="#0036A9" fill-rule="evenodd"></path>
                            <path d="M32.1729198,44.2001649 C32.1729198,41.3172487 29.8497703,38.9794437 26.8638928,38.9794437 C23.8771149,38.9794437 21.3099446,41.3172487 21.3099446,44.2001649 C21.3099446,47.0143988 24.014883,49.3017789 26.3587428,49.4104534 L31.8271487,49.3026483 C31.8271487,49.3026483 32.1729198,44.6157361 32.1729198,44.2001649" id="Fill-47" stroke="none" fill="#FFBE5D" fill-rule="evenodd"></path>
                            <path d="M27.820166,46.8925965 C26.9341275,46.8925965 26.2146715,47.5863743 26.2146715,48.442729 C26.2146715,49.2990838 26.9341275,49.9928616 27.820166,49.9928616 C28.7071048,49.9928616 29.4256604,49.2990838 29.4256604,48.442729 C29.4256604,47.5863743 28.7071048,46.8925965 27.820166,46.8925965" id="Fill-50" stroke="none" fill="#33C95A" fill-rule="evenodd"></path>
                            <path d="M43.0785761,53.0942569 C48.9125629,56.4840308 56.3160263,56.2527715 60.686789,52.1074928" id="Stroke-53" stroke="#001861" stroke-width="0.694325581" fill="none" stroke-linecap="round"></path>
                            <path d="M59.7517664,40.0937481 L59.7517664,40.0937481 C58.8198052,40.0937481 58.0571278,39.35737 58.0571278,38.4584148 L58.0571278,37.123023 C58.0571278,36.2231984 58.8198052,35.4868203 59.7517664,35.4868203 C60.6837275,35.4868203 61.4455045,36.2231984 61.4455045,37.123023 L61.4455045,38.4584148 C61.4455045,39.35737 60.6837275,40.0937481 59.7517664,40.0937481" id="Fill-56" stroke="none" fill="#001861" fill-rule="evenodd"></path>
                            <path d="M42.5443418,40.0937481 L42.5443418,40.0937481 C41.6123806,40.0937481 40.8497032,39.35737 40.8497032,38.4584148 L40.8497032,37.123023 C40.8497032,36.2231984 41.6123806,35.4868203 42.5443418,35.4868203 C43.4763029,35.4868203 44.2380799,36.2231984 44.2380799,37.123023 L44.2380799,38.4584148 C44.2380799,39.35737 43.4763029,40.0937481 42.5443418,40.0937481" id="Fill-59" stroke="none" fill="#001861" fill-rule="evenodd"></path>
                            <path d="M69.8246006,44.2001649 C69.8246006,41.3172487 72.1477501,38.9794437 75.1336276,38.9794437 C78.1195051,38.9794437 80.6866754,41.3172487 80.6866754,44.2001649 C80.6866754,47.0143988 77.9826374,49.3017789 75.6387776,49.4104534 L70.1703717,49.3026483 C70.1703717,49.3026483 69.8246006,44.6157361 69.8246006,44.2001649" id="Fill-62" stroke="none" fill="#F6BD68" fill-rule="evenodd"></path>
                            <path d="M75.2558181,42.5381411 C74.3076489,42.5381411 73.5395688,43.2797357 73.5395688,44.1952094 C73.5395688,45.1098136 74.3076489,45.8522776 75.2558181,45.8522776 C76.2030868,45.8522776 76.9720673,45.1098136 76.9720673,44.1952094 C76.9720673,43.2797357 76.2030868,42.5381411 75.2558181,42.5381411" id="Fill-65" stroke="none" fill="#FB9302" fill-rule="evenodd"></path>
                            <path d="M50.6980564,6.21956998 C50.4180178,11.1551294 37.1922735,9.75105536 38.4123772,12.6365797 C48.4784581,36.4275934 67.3581001,22.2121041 72.8355105,49.9927747 C72.8355105,54.341492 68.8915589,65.3019637 66.9276871,68.6491372 C66.9276871,68.6491372 74.7309484,79.9730164 78.7010128,83.6140456 C78.7010128,65.4506304 82.2856866,52.107145 81.9138026,30.6782795 C81.9138026,30.6782795 75.108235,0.592840936 50.6980564,6.21956998" id="Fill-68" stroke="none" fill="#0036A9" fill-rule="evenodd"></path>
                            <path d="M111.347927,141.239593 C111.174141,140.431055 111.057083,139.597304 110.819366,138.809632 C110.589752,138.015874 110.359238,137.222985 110.128724,136.432704 C109.890106,135.643293 109.567746,134.899959 109.288608,134.133152 L108.850091,132.994244 C108.705119,132.613449 108.516026,132.26569 108.350344,131.900544 C108.003672,131.178946 107.658802,130.460825 107.314832,129.745312 C106.956454,129.041102 106.546751,128.385577 106.164062,127.709188 C105.764264,127.051055 105.406787,126.346844 104.970071,125.739137 C104.545061,125.11665 104.122752,124.498509 103.703144,123.885585 C101.999501,121.458232 100.1779,119.293437 98.3959183,117.339905 C97.524287,116.324451 96.6157374,115.440275 95.7405043,114.571749 C94.8634703,113.7067 94.0278569,112.837304 93.1751349,112.107881 C92.330517,111.354115 91.5210164,110.631648 90.7511355,109.944825 C89.9893585,109.255394 89.1708535,108.635515 88.4495966,108.034763 C87.7121317,107.438357 87.0232909,106.880205 86.3857754,106.365523 C86.2281974,106.237722 86.0724203,106.113398 85.920245,105.991683 C85.7815764,105.887355 85.6465096,105.785636 85.5132437,105.685655 C85.2485127,105.486564 84.9963879,105.297035 84.7568694,105.117071 C82.844323,103.668657 81.7511821,102.840993 81.7511821,102.840993 L81.6980558,102.799262 C81.4792475,102.635815 81.2388286,102.491496 81.0029118,102.344568 L67.0126892,88.6976632 L67.0126892,216.647499 L90.3882559,216.647499 C90.3882559,199.913371 84.2120998,189.65711 81.902457,169.547987 C80.661643,158.747484 82.4148105,144.229445 82.4553305,126.369449 C82.8029025,126.643308 83.1495741,126.924123 83.5115532,127.206677 C84.2778323,127.811776 85.0882333,128.429917 85.8184947,129.119347 C86.1984827,129.456673 86.5838734,129.799215 86.9737663,130.146104 C87.1655613,130.321722 87.3681615,130.494731 87.5563546,130.674696 C87.7346428,130.859878 87.9138315,131.045059 88.0948211,131.232848 C88.4586011,131.605819 88.8259829,131.983137 89.1969664,132.364802 C89.3806573,132.556069 89.5796558,132.743858 89.7543422,132.941211 L90.2603926,133.543702 C90.6025619,133.946232 90.948333,134.35311 91.2968055,134.761726 C91.667789,135.165125 91.9253165,135.606778 92.2530787,136.031043 C92.5565288,136.461394 92.9022999,136.886529 93.1868407,137.329051 C93.4605761,137.775051 93.735212,138.223659 94.0116488,138.674006 C94.1449148,138.900919 94.3087959,139.121745 94.4204511,139.353874 L94.7689235,140.05026 C94.992234,140.517125 95.2722726,140.977035 95.4586648,141.456073 L96.0277464,142.894922 C96.2357494,143.373959 96.3275948,143.871254 96.4914759,144.358985 C97.0398472,146.325558 97.4054281,148.344295 97.3811161,150.397807 C97.3865188,152.447842 97.1334936,154.519612 96.6724655,156.55139 C96.200632,158.57969 95.4748729,160.557566 94.6887839,162.434591 C94.3538181,163.237043 93.9909386,164.015152 93.6172537,164.775874 L106.090226,168.880291 C106.286523,168.52123 106.48372,168.166517 106.677316,167.792677 C107.866805,165.489648 109.037384,162.957098 109.945033,160.143733 C110.865288,157.339063 111.556831,154.279659 111.847674,151.066373 C112.170934,147.854825 111.944022,144.498958 111.347927,141.239593" id="Fill-71" stroke="none" fill="#00BE45" fill-rule="evenodd"></path>
                            <path d="M23.0189903,102.624426 C22.2635164,103.100855 21.5449609,103.744208 20.8804321,104.586652 C20.8804321,104.586652 20.6175019,104.919631 20.1258587,105.543857 C20.0024976,105.700348 19.8647295,105.874227 19.7134546,106.066364 C19.6756359,106.114181 19.6369167,106.162867 19.5972971,106.213292 C19.558578,106.263717 19.5225602,106.305448 19.4550267,106.40195 C19.3361679,106.568874 19.2119064,106.742754 19.0831427,106.922719 C18.5797937,107.639101 17.9746942,108.506758 17.3975086,109.420492 C16.9490867,110.223814 16.4529412,111.112336 15.9117735,112.079974 C15.4516458,113.030223 14.9527989,114.058719 14.4467485,115.153288 C14.0037293,116.232208 13.4967785,117.391112 13.0384517,118.591748 C12.61074,119.787167 12.0956852,121.054746 11.693186,122.352754 C11.2618726,123.656847 10.8170525,125.013104 10.4262591,126.405876 C10.0021493,127.802126 9.62216124,129.238368 9.23857143,130.711993 C8.83337093,132.188227 8.51101142,133.694021 8.13192384,135.237198 C7.78975453,136.776898 7.44128209,138.347896 7.1153208,139.943237 C6.47330312,143.13305 5.85469702,146.421104 5.31623058,149.755237 C4.76515789,153.090239 4.25820705,156.46958 3.78457268,159.845444 C1.9152477,173.349767 0.75007115,186.806274 0.0117057923,196.889526 C0.00720356447,196.941689 0.00360178223,196.991245 0,197.043409 L11.9867313,198.484867 C12.0029393,198.37967 12.0182469,198.279689 12.0344549,198.173623 C13.5805199,188.316414 15.8217289,175.209405 18.7004534,162.351912 C19.4244116,159.140364 20.1726818,155.941857 20.989386,152.826812 C21.3423606,151.441865 21.7106429,150.08126 22.0834273,148.734566 C22.394081,156.891237 22.610188,163.438656 21.9618672,169.5479 C19.6630297,191.2002 13.7588081,201.427771 13.7588081,216.647412 L36.9011594,216.647412 L36.9011594,88.6975762 L22.8821225,102.468804 C22.9271448,102.51749 22.973968,102.573132 23.0189903,102.624426" id="Fill-74" stroke="none" fill="#00BE45" fill-rule="evenodd"></path>
                        </g>
                    </g>
                    <path d="M40.9265084,101.662323 C41.8772428,101.662323 42.6561476,102.374811 42.7249928,103.278531 L42.7299394,103.408878 L42.7299394,116.824347 L65.985181,116.825045 C66.9359154,116.825045 67.7148202,117.537533 67.7836654,118.441253 L67.788612,118.571601 C67.788612,119.492352 67.0529223,120.246692 66.1197732,120.313366 L65.985181,120.318157 L39.1230775,120.318157 L39.1230775,103.408878 C39.1230775,102.444282 39.9305011,101.662323 40.9265084,101.662323 Z M127.301832,101.662323 C128.29784,101.662323 129.105263,102.444282 129.105263,103.408878 L129.105263,103.408878 L129.105263,120.318157 L102.24316,120.318157 L102.108567,120.313366 C101.175418,120.246692 100.439729,119.492352 100.439729,118.571601 L100.439729,118.571601 L100.444675,118.441253 C100.51352,117.537533 101.292425,116.825045 102.24316,116.825045 L102.24316,116.825045 L125.499303,116.824347 L125.498401,103.408878 L125.503348,103.278531 C125.572193,102.374811 126.351098,101.662323 127.301832,101.662323 Z M65.985181,32.9904623 C66.9811884,32.9904623 67.788612,33.7724219 67.788612,34.7370179 C67.788612,35.6577687 67.0529223,36.4121089 66.1197732,36.478783 L65.985181,36.4835735 L42.7290377,36.4827876 L42.7296689,49.8997406 C42.7296689,50.8204914 41.9939792,51.5748317 41.0608301,51.6415057 L40.9262379,51.6462962 C39.9755036,51.6462962 39.1965988,50.9338083 39.1277536,50.0300881 L39.122807,49.8997406 L39.122807,32.9904623 L65.985181,32.9904623 Z M129.105263,32.9904623 L129.105263,49.8997406 L129.100317,50.0300881 C129.031471,50.9338083 128.252567,51.6462962 127.301832,51.6462962 L127.301832,51.6462962 L127.16724,51.6415057 C126.234091,51.5748317 125.498401,50.8204914 125.498401,49.8997406 L125.498401,49.8997406 L125.499033,36.4827876 L102.242889,36.4835735 L102.108297,36.478783 C101.175148,36.4121089 100.439458,35.6577687 100.439458,34.7370179 C100.439458,33.7724219 101.246882,32.9904623 102.242889,32.9904623 L102.242889,32.9904623 L129.105263,32.9904623 Z" id="Path" fill="#FFFFFF" mask="url(#mask-2)"></path>
                </g>
            </g>
        </g>
    </g>
</svg>