<?xml version="1.0" encoding="UTF-8"?>
<svg width="53px" height="53px" viewBox="0 0 53 53" version="1.1" xmlns="http://www.w3.org/2000/svg" xmlns:xlink="http://www.w3.org/1999/xlink">
    <title>grabar (1)</title>
    <g id="Page-1" stroke="none" stroke-width="1" fill="none" fill-rule="evenodd">
        <g id="HP_Web_Solicitud-Certificado_Videofirma-3" transform="translate(-775.000000, -613.000000)" fill="#C0BDC1" fill-rule="nonzero">
            <g id="grabar-(1)" transform="translate(775.000000, 613.000000)">
                <path d="M26.5,0 C11.8644133,0 0,11.8644133 0,26.5 C0,41.1355867 11.8644133,53 26.5,53 C41.128748,52.9835444 52.9835444,41.128748 53,26.5 C53,11.8644133 41.1355867,0 26.5,0 Z M26.5,51.2903226 C12.8086895,51.2903226 1.70967742,40.1913105 1.70967742,26.5 C1.70967742,12.8086895 12.8086895,1.70967742 26.5,1.70967742 C40.1848992,1.72527823 51.2748286,12.8151008 51.2903226,26.5 C51.2903226,40.1913105 40.1913105,51.2903226 26.5,51.2903226 Z" id="Shape"></path>
                <path d="M26.5,5.98387097 C15.1692198,5.98387097 5.98387097,15.1692198 5.98387097,26.5 C5.98387097,37.8307802 15.1692198,47.016129 26.5,47.016129 C37.8307802,47.016129 47.016129,37.8307802 47.016129,26.5 C47.0133508,15.1703952 37.8296048,5.98664919 26.5,5.98387097 Z M26.5,34.1935484 C22.2510242,34.1935484 18.8064516,30.7489758 18.8064516,26.5 C18.8064516,22.2509173 22.2510242,18.8064516 26.5,18.8064516 C30.7490827,18.8064516 34.1935484,22.2509173 34.1935484,26.5 C34.1935484,30.7489758 30.7490827,34.1935484 26.5,34.1935484 Z" id="Shape"></path>
            </g>
        </g>
    </g>
</svg>