<?xml version="1.0" encoding="UTF-8"?>
<svg width="53px" height="53px" viewBox="0 0 53 53" version="1.1" xmlns="http://www.w3.org/2000/svg" xmlns:xlink="http://www.w3.org/1999/xlink">
    <title>boton-detener (2)</title>
    <g id="Page-1" stroke="none" stroke-width="1" fill="none" fill-rule="evenodd">
        <g id="HP_Web_Solicitud-Certificado_Videofirma-2" transform="translate(-898.000000, -613.000000)" fill="#C0BDC1" fill-rule="nonzero">
            <g id="Group-5" transform="translate(775.000000, 613.000000)">
                <g id="boton-detener-(2)" transform="translate(123.000000, 0.000000)">
                    <path d="M33.4984692,18.8507155 L19.5015308,18.8507155 C19.1664226,18.8507155 18.8912812,19.1135108 18.8912812,19.4539101 L18.8912812,33.6025291 C18.8912812,33.9358735 19.1646589,34.2092512 19.5015308,34.2092512 L33.4984692,34.2092512 C33.8335774,34.2092512 34.1051913,33.9376373 34.1051913,33.6025291 L34.1051913,19.4539101 C34.1034276,19.1152745 33.8335774,18.8507155 33.4984692,18.8507155 Z" id="Path"></path>
                    <path d="M26.5017637,0 C11.8681198,0 0.00176372712,11.8628286 0.00176372712,26.5 C0.00176372712,41.1371714 11.8681198,53 26.5017637,53 C41.1371714,53 52.9982363,41.1371714 52.9982363,26.5 C52.9982363,11.8628286 41.1371714,0 26.5017637,0 Z M26.5017637,48.5730449 C14.3108819,48.5730449 4.42695507,38.6891181 4.42695507,26.5 C4.42695507,14.3055907 14.3108819,4.42342762 26.5017637,4.42342762 C38.6944093,4.42342762 48.5730449,14.3055907 48.5730449,26.5 C48.5730449,38.6891181 38.6944093,48.5730449 26.5017637,48.5730449 Z" id="Shape"></path>
                </g>
            </g>
        </g>
    </g>
</svg>